<?xml version="1.0" encoding="UTF-8"?>
<svg version="1.1" viewBox="30 390 1510 740" width="1510" height="740" xmlns="http://www.w3.org/2000/svg">
<path transform="translate(53,418)" d="m0 0h289l1 1v685l-9-2-20-7-20-8-29-14-19-11-15-10-14-10-10-8-13-11-12-11-20-20-9-11-12-14-13-18-10-15-15-25-14-27-11-24-9-25-7-24-6-30-3-28z"/>
<path transform="translate(443,651)" d="m0 0h27l8 16 16 36 13 29 17 38v2h2l3-9 18-40 32-72h28v156h-26l-1-103-13 29-20 45-13 29h-18l-7-14-12-27-17-38-11-25-1 104h-25z"/>
<path transform="translate(1229,905)" d="m0 0 15 1 13 4 11 7 8 10v2h2l2-5 9-9 16-8 12-2 15 1 12 4 10 6 7 7 6 10 4 15v83h-25l-1-75-3-12-5-8-10-6-4-1h-17l-9 4-6 5-5 10-1 4-1 79h-26l-1-78-3-10-6-8-6-4-6-2h-17l-10 4-7 7-4 10-1 6-1 75h-25v-124h25l1 13 8-7 10-5z"/>
<path transform="translate(505,424)" d="m0 0h17l16 3 12 5 11 6 12 11 6 7 8 14 4 11 2 11v24l-4 16-5 12-10 14-7 7-10 7-14 7-16 4-16 1-16-2-15-5-14-8-10-9-8-9-7-12-5-15-2-12v-17l3-16 7-16 7-10 8-9 11-8 14-7 14-4zm8 22-15 2-12 5-8 6-7 7-8 16-3 16v11l3 16 5 12 8 10 10 8 13 5 4 1h21l13-4 10-6 9-9 6-10 4-13 1-6v-19l-4-16-6-11-7-8-9-6-8-4-8-2z"/>
<path transform="translate(975,865)" d="m0 0h26v166h-26l-1-17-6 7-11 7-11 4-6 1h-16l-12-3-13-7-10-9-9-14-5-15-1-6v-21l4-16 7-13 10-11 11-7 10-4 13-2 14 1 13 4 12 7 6 6zm-46 63-12 5-8 7-6 10-3 11v15l3 11 5 9 5 6 10 6 10 3h9l13-4 9-7 7-10 3-8 1-6v-14l-3-11-5-9-4-5-11-7-6-2z"/>
<path transform="translate(874,641)" d="m0 0h26v166h-26l-1-17-6 7-11 7-11 4-6 1h-16l-12-3-13-7-10-9-9-14-5-15-1-6v-21l4-16 7-13 10-11 11-7 10-4 13-2 14 1 13 4 12 7 6 6zm-46 63-12 5-8 7-6 10-3 11v15l3 11 5 9 5 6 10 6 10 3h9l13-4 9-7 7-10 3-8 1-6v-14l-3-11-5-9-4-5-11-7-6-2z"/>
<path transform="translate(778,905)" d="m0 0 15 1 10 3 11 6 8 7 1 2 1-17h25l1 1v123h-26l-1-17-5 6-12 8-12 4-5 1h-16l-12-3-10-5-9-7-7-8-7-12-4-13-1-6v-21l4-16 7-13 10-11 11-7 10-4zm0 23-12 5-8 7-6 10-3 11v15l3 11 5 9 5 6 10 6 10 3h9l13-4 9-7 7-10 3-8 1-6v-14l-3-11-5-9-4-5-11-7-6-2z"/>
<path transform="translate(489,875)" d="m0 0h30l7 18 19 54 18 50 12 34h-27l-5-12-6-17v-3h-66l-3 11-7 20-1 1h-26l2-9 19-53 20-56zm14 32-22 63-2 5v3h50l-3-11-21-60z"/>
<path transform="translate(1072,456)" d="m0 0 17 1 13 4 12 7 10 10 8 14 3 11 1 7v15l-1 5h-94l3 12 6 10 9 6 8 3h18l9-4 7-6 4-6h27l-1 5-6 11-8 9-10 7-12 5-11 2h-17l-16-4-11-6-10-9-6-7-6-12-3-11-1-6v-18l3-14 5-12 10-13 11-8 12-5 8-2zm-4 22-11 4-10 9-5 10-1 8h68l-1-10-4-8-7-7-8-4-7-2z"/>
<path transform="translate(1082,905)" d="m0 0 17 1 14 4 10 6 10 9 7 10 5 14 2 13v9l-1 8h-95l5 15 7 9 8 5 7 2h18l9-4 6-5 5-7h27l-3 9-7 10-9 9-12 7-10 3-7 1h-17l-16-4-13-7-9-8-7-10-5-11-3-13v-22l4-16 7-13 9-10 11-7 9-4 8-2zm-3 22-11 4-8 7-4 5-4 10v5h68l-1-9-5-10-8-7-9-4-4-1z"/>
<path transform="translate(981,681)" d="m0 0 17 1 14 4 10 6 10 9 7 10 5 14 2 13v9l-1 8h-95l5 15 7 9 8 5 7 2h18l9-4 6-5 5-7h27l-3 9-7 10-9 9-12 7-10 3-7 1h-17l-16-4-13-7-9-8-7-10-5-11-3-13v-22l4-16 7-13 9-10 11-7 9-4 8-2zm-3 22-11 4-8 7-4 5-4 10v5h68l-1-9-5-10-8-7-9-4-4-1z"/>
<path transform="translate(690,681)" d="m0 0 17 1 16 5 11 7 8 7 9 14 4 10 2 10v20l-4 15-6 12-9 10-8 7-15 7-13 3h-18l-13-3-14-7-10-9-7-9-6-13-3-14v-17l3-14 5-12 7-9 5-5 7-6 12-6 11-3zm-5 23-12 5-6 5-7 11-3 12v16l3 12 5 9 7 7 11 5 5 1h10l13-4 8-6 7-9 4-10 1-6v-14l-3-12-6-10-8-7-8-4-4-1z"/>
<path transform="translate(1388,907)" d="m0 0h28l4 9 19 51 12 33 10-25 21-55 5-12 1-1h25l-1 6-20 48-18 43-35 84-1 1h-26l3-9 17-41 3-7v-6l-43-107-4-10z"/>
<path transform="translate(676,456)" d="m0 0 15 1 13 4 11 7 8 10 5 11 2 8v85h-25l-1-77-3-10-6-9-12-6h-17l-10 4-5 4-6 12-1 5-1 77h-26v-123l1-1h25l1 13 9-8 12-5z"/>
<path transform="translate(937,456)" d="m0 0 15 1 13 4 9 6 8 8 6 12 3 12v83h-25l-1-75-3-12-5-8-10-6-4-1h-17l-9 4-6 5-5 10-1 4-1 79h-26v-124h25l1 1 1 12 5-5 10-6 10-3z"/>
<path transform="translate(646,905)" d="m0 0 17 1 12 3 13 7 10 10 8 16 1 4h-28l-6-9-7-6-9-3h-14l-11 4-7 6-6 12-2 7v24l4 13 7 9 7 5 6 2h18l8-3 7-6 5-9h28l-4 11-7 11-10 9-14 7-13 3h-18l-13-3-12-6-10-8-8-11-5-10-3-12-1-8v-12l3-16 5-12 6-9 10-10 16-8 8-2z"/>
<path transform="translate(1070,641)" d="m0 0h25v166h-25z"/>
<path transform="translate(762,416)" d="m0 0h25v166h-25z"/>
<path transform="translate(820,458)" d="m0 0h25v124h-25z"/>
<path transform="translate(830,409)" d="m0 0 9 1 6 4 4 8v8l-3 6-6 5-3 1h-8l-8-4-4-6-1-7 3-9 7-6z"/>
</svg>
